<svg width="2357" height="1327" viewBox="0 0 2357 1327" fill="none" xmlns="http://www.w3.org/2000/svg">
<path fill-rule="evenodd" clip-rule="evenodd" d="M1522.26 2.11423C1521.58 4.06184 1521.57 8.33396 1522.23 11.6105C1522.89 14.8848 1524.73 29.7033 1526.32 44.5413C1530.75 85.9379 1540.7 103.724 1563.56 111.074C1579.4 116.17 1605.69 122.851 1606.52 121.997C1607.98 120.503 1598.48 85.731 1593 72.4833C1584.39 51.676 1577.16 42.4956 1554.22 23.2286C1524.31 -1.89428 1523.79 -2.24285 1522.26 2.11423ZM1464.59 28.6619C1462.54 34.5418 1467.69 74.4657 1472.22 87.7483C1474.43 94.2447 1475.93 99.776 1475.55 100.037C1475.17 100.301 1469.95 103.329 1463.95 106.767C1430.96 125.67 1410.89 146.264 1398.73 173.694C1394.3 183.678 1390.12 195.769 1389.44 200.562L1388.19 209.276L1395.11 198.27C1402.92 185.859 1420.41 167.548 1431.06 160.647C1438.32 155.947 1440.83 157.324 1434.84 162.716C1427.2 169.6 1414.4 191.761 1406.49 211.794C1394.7 241.66 1389.41 250.734 1364.9 283.089C1362.01 286.904 1362.36 286.876 1369.87 282.699C1383.81 274.948 1398.88 259.777 1424.73 227.469C1438.5 210.274 1460.96 183.99 1474.66 169.058L1499.56 141.913L1505.41 148.066L1511.25 154.218L1504.42 170.692C1495.51 192.161 1491.24 208.601 1492.81 215.439C1493.82 219.87 1492.45 222.857 1485.69 230.898L1477.33 240.865L1483.04 241.017C1488.02 241.152 1488.24 241.409 1484.78 243.043C1482.6 244.074 1478.39 244.984 1475.43 245.069C1467.33 245.298 1457.11 256.518 1451.97 270.826C1445.42 289.024 1444.11 289.289 1444.11 272.427V257.367L1434.06 268.179C1400.9 303.827 1296.41 447.295 1296.3 457.333C1296.28 458.889 1292.68 464.634 1288.3 470.102C1278.76 482.005 1270.49 506.688 1272.71 516.644C1273.95 522.184 1273.08 521.541 1265.84 511.548C1261.28 505.259 1257.11 500.111 1256.57 500.111C1254.83 500.111 1257.84 511.629 1264.55 530.611C1268.15 540.795 1272.23 554.503 1273.61 561.071C1276.97 577.066 1283.73 584.39 1296.91 586.309C1305.25 587.525 1307.12 588.632 1308.11 592.93C1310.24 602.256 1317.16 605.053 1339.03 605.428L1359.06 605.77L1366.71 596.782C1372.13 590.427 1375.57 583.401 1378.47 572.818C1380.72 564.581 1384.24 554.901 1386.28 551.307C1390.14 544.518 1425.17 518.988 1486.17 478.52L1519.3 456.54L1535.76 456.462C1574.29 456.281 1602.5 440.365 1622.11 407.752C1633.81 388.295 1642.42 354.493 1642.54 327.553C1642.62 309.138 1645.45 314.857 1649.36 341.328C1655.08 380.01 1652.37 407.85 1640.03 437.288L1633.33 453.272L1638.72 471.79C1649.82 509.947 1654.38 545.22 1654.38 592.956C1654.38 649.892 1646.34 709.667 1634.43 741.356C1628.53 757.039 1628.5 757.325 1629.04 794.73L1629.59 832.338L1636.88 816.914C1652 784.949 1678.72 745.528 1703.96 717.965C1723.14 697.025 1742.01 679.289 1738.74 685.287C1737.76 687.084 1730.51 700.001 1722.63 713.991C1691.4 769.466 1671.61 814.446 1655.56 866.478C1646.15 897.002 1636.53 936.566 1636.53 944.775C1636.53 946.132 1641.21 942.904 1646.94 937.601C1652.67 932.301 1669.59 918.012 1684.53 905.849C1724 873.731 1747.39 848.728 1795.1 787.678C1810.54 767.908 1827.38 747.454 1832.51 742.225C1842.15 732.4 1869.17 709.251 1871 709.251C1871.57 709.251 1865.47 720.176 1857.43 733.529C1849.4 746.881 1842.83 758.789 1842.83 759.987C1842.83 761.187 1847.52 757.368 1853.26 751.504C1898.83 704.907 1946.26 675.457 1998.38 661.384L2020.27 655.469L2005.08 645.703C1996.72 640.328 1981.38 631.599 1970.97 626.299C1950.03 615.626 1951.41 617.595 1942.94 586.24C1928.94 534.44 1900.37 457.76 1879.9 417.083C1866.81 391.062 1841.6 351.413 1830.84 339.943L1822.71 331.274L1824.07 337.81C1824.94 341.973 1821.65 337.485 1815.02 325.442C1783.22 267.678 1741.24 221.456 1696.04 194.438C1681.05 185.482 1666.54 180.75 1648.43 178.922L1635.54 177.622L1640.5 182.349C1644.76 186.41 1644.9 186.911 1641.49 185.909C1600.18 173.766 1559.44 160.326 1558.44 158.52C1557.5 156.815 1590.24 155.337 1636.04 155.022C1652.67 154.906 1666.29 154.697 1666.29 154.558C1666.28 154.416 1662.73 151.721 1658.39 148.567C1643.96 138.077 1622.17 131.685 1589.91 128.478C1551.91 124.701 1535.66 119.309 1524.14 106.656C1515.67 97.3513 1509.57 81.4022 1509.57 68.5314C1509.57 64.5773 1507.73 61.0045 1504.12 57.9676C1501.12 55.4449 1494.89 50.2229 1490.27 46.3647C1485.65 42.5065 1478.29 36.082 1473.9 32.0866C1466.85 25.6555 1465.78 25.2656 1464.59 28.6619ZM1722.82 42.9575C1711.91 43.7439 1694.71 45.9051 1684.6 47.7612C1663.99 51.5409 1616.74 68.2591 1615.34 72.2676C1614.84 73.6989 1616.33 79.7095 1618.64 85.6242C1622.44 95.3231 1623.96 96.8633 1634.16 101.36C1719.14 138.844 1805.2 225.955 1867.91 337.978C1888.9 375.472 1899.06 396.813 1930.54 469.611C1965.94 551.485 2013.66 603.343 2086.82 639.472C2124.36 658.007 2139.81 661.066 2207.83 663.421C2252.11 664.955 2265.21 666.133 2277.44 669.676C2304.93 677.645 2325.38 689.722 2346.22 710.297C2355.42 719.379 2356.6 720 2356.6 715.749C2356.6 709.199 2346.51 688.914 2335.77 673.889C2308.4 635.586 2265.72 615.097 2197.91 607.694C2184.57 606.239 2183.75 605.897 2189.97 604.38C2193.79 603.452 2208.97 601.104 2223.7 599.165C2268.58 593.257 2301.92 598.677 2337.32 617.63L2356.72 628.018L2356.17 602.873L2355.61 577.728L2341.72 567.262C2323.16 553.267 2300.11 540.913 2277.52 532.848C2258.74 526.145 2221.03 517.722 2207.98 517.322L2200.88 517.102L2208.82 514.96C2226.73 510.128 2272.15 516.099 2304.32 527.519C2306.34 528.238 2303.54 525.635 2298.08 521.733C2280.19 508.941 2247.21 496.235 2215.76 490.027C2194.39 485.807 2152.2 485.214 2133.44 488.87C2079.42 499.394 2071.35 500.427 2050.12 499.529C2014.33 498.013 1987.88 485.661 1960.25 457.564C1952.4 449.589 1945.98 442.393 1945.98 441.576C1945.98 440.757 1954.69 444.717 1965.32 450.375C2007.65 472.884 2036.92 473.274 2109.64 452.29C2142.81 442.717 2165.23 441.436 2191.51 447.615C2202.61 450.227 2214.82 453.793 2218.63 455.542C2229.27 460.425 2225.88 454.357 2211.2 442.236C2177.63 414.525 2148.15 404.68 2096.79 404.042C2082.59 403.865 2071.5 402.863 2072.1 401.811C2072.69 400.759 2074.43 399.898 2075.97 399.898C2080.83 399.898 2106.95 389.807 2126.5 380.372C2171.29 358.756 2195.18 350.925 2227.4 347.289L2249.96 344.744L2236.33 340.67C2227.03 337.888 2214.74 336.444 2197.59 336.113C2183.77 335.849 2173.55 334.958 2174.86 334.137C2180.58 330.581 2214.06 327.512 2233.61 328.754C2271.21 331.141 2297.13 340.298 2326.64 361.626C2335.48 368.013 2342.72 372.405 2342.72 371.385C2342.72 363.745 2323.58 335.453 2307.38 319.146C2275.33 286.876 2237.26 271.39 2189.97 271.399C2165.68 271.404 2132.79 277.351 2118.56 284.311L2113.6 286.736L2118.56 285.51C2131.41 282.329 2168.2 281.821 2185.04 284.592L2202.87 287.525L2182.04 289.276C2156.91 291.392 2142.68 294.683 2103.64 307.415C2087.26 312.759 2066.87 318.597 2058.34 320.39C2021.56 328.12 1981.34 321.351 1940.1 300.489C1922.8 291.738 1899.75 277.837 1900.74 276.748C1901.12 276.334 1908.56 278.75 1917.26 282.118C1943.28 292.185 1968.12 296.086 1997.2 294.67C2028.53 293.145 2039.74 290.374 2091.78 271.299L2133.44 256.03L2118.56 257.293C2110.38 257.99 2095.65 259.966 2085.83 261.685C2076.01 263.404 2067.21 264.816 2066.27 264.82C2062.79 264.837 2118.19 229.055 2135.42 220.149C2163.48 205.657 2176.24 202.705 2209.81 202.949C2232.51 203.117 2241.4 204.089 2251.96 207.559C2259.33 209.98 2265.35 211.587 2265.35 211.134C2265.35 208.457 2240.52 193.601 2226.89 188.12C2205.29 179.441 2185.45 175.509 2163.28 175.509C2136.32 175.509 2113.91 180.543 2074.92 195.359C2013.72 218.613 2010.22 219.631 1987.64 220.683C1963.1 221.829 1946.34 218.269 1927.63 207.938C1914.84 200.875 1885.84 179.829 1887.06 178.493C1887.44 178.077 1900.46 179.208 1916.01 181.005C1940.92 183.885 1946.54 183.894 1963.47 181.086C1994.05 176.012 2015.94 166.272 2037.27 148.242C2051.75 136.007 2053.45 133.262 2043.75 137.746C2027.81 145.12 2009.7 149.662 1991.41 150.878C1958.38 153.072 1933.04 147.044 1866.78 121.219C1822.17 103.835 1800.38 97.7979 1767.56 93.7284C1752.89 91.9071 1740.62 90.1273 1740.3 89.7722C1738.69 88.0054 1774.37 77.202 1788.07 75.3088C1812.39 71.9473 1844.18 76.8338 1872.46 88.2799C1878.39 90.6784 1883.59 92.2579 1884.02 91.7873C1885.76 89.8767 1861.13 72.041 1845.99 64.2505C1812.5 47.0183 1769.54 39.5895 1722.82 42.9575ZM1455.64 328.551C1449.71 336.041 1441.71 346.764 1437.85 352.382C1434 358.001 1426.47 366.227 1421.11 370.66C1415.76 375.096 1406.7 383.073 1400.97 388.391C1395.24 393.707 1390.55 397.428 1390.55 396.661C1390.55 395.894 1401.29 379.398 1414.42 360.003L1438.28 324.739L1451.61 319.946C1458.94 317.312 1465.27 315.105 1465.68 315.044C1466.09 314.985 1461.57 321.063 1455.64 328.551ZM1311.09 483.637C1316.99 490.532 1318.71 505.786 1314.56 514.455C1310.16 523.655 1293.35 541.196 1293.35 536.586C1293.35 534.582 1295.9 529.72 1299.01 525.785C1306.86 515.862 1309.22 510.307 1309.22 501.754C1309.22 492.079 1303.09 484.883 1294.76 484.792C1288.73 484.726 1288.6 484.552 1292.25 481.524C1298.02 476.731 1305.94 477.618 1311.09 483.637ZM2009.46 697.33C1970.66 703.894 1934.66 720.969 1900.95 748.796C1864.96 778.504 1838.09 811.832 1803.78 869.334C1793.76 886.131 1782.6 904.095 1778.98 909.256C1772.41 918.633 1747.97 937.769 1719.84 955.552C1691.68 973.362 1676.9 993.472 1665.29 1029.81C1659.79 1047.02 1657.77 1050.16 1620.16 1099.91C1610.62 1112.54 1602.81 1123.43 1602.81 1124.11C1602.81 1126.87 1612.41 1124.97 1635.97 1117.55C1679.11 1103.96 1710.38 1088.55 1758.53 1057.17C1809.41 1023.99 1835.3 1011.07 1901.35 985.93C1943.46 969.898 1972.02 955.199 1993.14 938.684C2023.53 914.923 2037.23 896.289 2037.23 878.711C2037.23 840.02 2056.67 794.284 2086.24 763.381C2098.31 750.772 2132.86 724.501 2137.38 724.501C2138.76 724.501 2140.88 723.193 2142.09 721.597C2145.19 717.499 2082.51 699.055 2055.79 696.201C2032.23 693.685 2030.8 693.72 2009.46 697.33ZM1575.14 828.288C1516.32 915.06 1513.43 958.633 1559.27 1067.41C1567.19 1086.21 1574.31 1100.8 1575.1 1099.85C1575.88 1098.9 1578.33 1092.73 1580.53 1086.14C1582.73 1079.55 1587.81 1064.94 1591.82 1053.67L1599.11 1033.18L1595.01 1006.5C1589.54 970.944 1589.73 952.637 1595.86 927.543C1599.95 910.757 1600.46 905.714 1598.81 898.132C1595.75 884.046 1594.27 832.079 1596.41 813.821C1597.47 804.834 1598.05 797.131 1597.71 796.7C1597.37 796.27 1587.21 810.485 1575.14 828.288ZM2224.29 868.178C2211.07 874.768 2195.02 887.752 2165.18 915.994L2137.41 942.276L2124.95 942.315C2118.09 942.337 2109.32 943.806 2105.46 945.577C2098.86 948.605 2083.94 961.872 2063.13 983.211C2053.31 993.285 2051.17 994.176 2017.61 1002.21C1992.83 1008.13 1988.57 1010.83 1964.83 1035.67C1958.28 1042.52 1945.23 1055.69 1935.84 1064.95L1918.75 1081.78L1904.1 1081.82C1877.75 1081.9 1866.95 1084.74 1847.2 1096.78C1837.2 1102.89 1810.47 1118.41 1787.82 1131.28L1746.62 1154.67L1765.47 1158.41C1797.38 1164.73 1914.46 1185.04 1957.88 1191.8C2044.75 1205.3 2077.29 1208.8 2116.58 1208.86C2140.89 1208.9 2151.69 1207.9 2168.15 1204.08C2188.52 1199.35 2310.73 1166.59 2341.23 1157.69L2356.6 1153.2V1041.53V929.863L2348.71 924.127C2344.37 920.972 2339.94 918.391 2338.86 918.391C2336.17 918.391 2314.7 905.5 2285.69 886.466C2248.48 862.049 2241.03 859.832 2224.29 868.178ZM2245.48 939.767C2245.5 941.339 2244.07 947.487 2242.3 953.43L2239.08 964.234L2257.91 995.23C2277.25 1027.06 2282.17 1036.03 2280.28 1036.03C2279.68 1036.03 2268.27 1028.81 2254.92 1019.99C2241.56 1011.17 2227 1001.92 2222.56 999.445L2214.48 994.942L2206.12 1000.16C2201.53 1003.02 2194 1008.75 2189.41 1012.89C2181.2 1020.26 2118.56 1062.98 2118.56 1061.19C2118.56 1060.18 2128.27 1042.21 2136.67 1027.68C2139.68 1022.49 2144.89 1010.73 2148.26 1001.54C2151.64 992.352 2155.04 983.538 2155.82 981.952C2156.6 980.366 2166.55 973.013 2177.92 965.613C2196.88 953.282 2199.28 950.958 2206.69 937.784C2211.13 929.876 2219.23 917.914 2224.68 911.199L2234.58 898.991L2240.01 917.951C2243 928.377 2245.46 938.194 2245.48 939.767ZM2092.77 1011.05C2092.77 1011.7 2091.3 1014.69 2089.5 1017.7C2087.61 1020.88 2086.98 1023.93 2088.02 1024.96C2090.47 1027.41 2108.54 1033.85 2112.96 1033.85C2122.13 1033.85 2114.82 1037.65 2096.92 1042.2C2066.02 1050.05 2053.12 1058.27 2034.07 1082.27C2018.64 1101.7 2017.42 1102.71 2002.34 1108.66C1965.95 1123 1893.76 1149.34 1893.03 1148.53C1892.6 1148.06 1897.42 1144.48 1903.74 1140.58C1910.06 1136.68 1927.73 1124.48 1943.01 1113.46C1965.76 1097.05 1973.95 1089.62 1988.32 1072.37L2005.87 1051.3L2023.04 1045.58C2043.76 1038.67 2049.11 1035.85 2062.21 1024.88C2072.15 1016.56 2076.34 1014.31 2073.93 1018.6C2071.97 1022.08 2074.22 1021.17 2082.05 1015.34C2089.1 1010.08 2092.77 1008.61 2092.77 1011.05ZM1230.87 1069.58C1219.34 1073.58 1211.24 1078.51 1191.2 1093.69C1145.17 1128.56 1135.22 1135.88 1129.46 1139.12C1124.2 1142.07 1118.2 1142.4 1089.79 1141.29C1049.74 1139.71 1050.52 1139.51 990.844 1166.08C967.933 1176.28 943.831 1186.82 937.285 1189.51C930.739 1192.21 911.101 1200.36 893.644 1207.63C766.265 1260.71 656.865 1293.63 534.6 1315.68C511.688 1319.81 487.309 1323.88 480.424 1324.71C455.078 1327.8 470.731 1327.76 522.811 1324.62C717.113 1312.89 843.922 1291.95 949.187 1254.22C1009.54 1232.59 1077.05 1199.81 1124.33 1169.19C1142.39 1157.49 1141.25 1159.31 1114.79 1184.37C1088.1 1209.64 1050.14 1238.53 1012.12 1262.5C1001.99 1268.88 993.99 1274.41 994.331 1274.78C995.184 1275.72 1033.42 1264.72 1119.78 1238.7C1288.23 1187.94 1373 1165.66 1463.76 1148.3C1491.95 1142.91 1499.51 1140.6 1488.99 1140.6C1473.88 1140.6 1414.53 1124.19 1373.69 1108.71C1356.24 1102.09 1327.67 1091.27 1310.22 1084.67C1279.5 1073.04 1255 1066.38 1244.08 1066.68C1241.18 1066.76 1235.23 1068.06 1230.87 1069.58ZM1581.98 1165.87C1455.91 1172.82 1319.48 1209.23 1132.82 1285.72C1101.2 1298.67 1075.59 1309.56 1075.91 1309.91C1076.23 1310.26 1096.19 1304.75 1120.26 1297.66C1245.65 1260.71 1338.42 1240.52 1441.3 1227.79C1494.71 1221.19 1533.71 1219.36 1603.8 1220.17C1698.96 1221.28 1759.06 1227.34 1916.23 1251.68C2023.18 1268.25 2043.25 1270.13 2113.6 1270.18C2167.92 1270.22 2182.78 1269.55 2200.88 1266.24C2234.69 1260.06 2285.66 1248.45 2322.82 1238.46L2356.6 1229.38V1211.95V1194.52L2350.16 1196.01C2315.68 1203.99 2225.22 1217.36 2180.15 1221.14C2116.89 1226.46 2037.2 1221.08 1941.02 1204.99C1914.91 1200.63 1848.11 1189.75 1807.13 1183.2C1723.39 1169.81 1634.52 1162.97 1581.98 1165.87ZM0 1260.12V1277.25L28.2673 1279.8C91.9491 1285.54 106.192 1286.61 151.751 1289.09C208.307 1292.17 400.38 1292.79 472.713 1290.13C500.863 1289.09 523.608 1287.93 523.253 1287.54C522.9 1287.15 500.76 1286.26 474.054 1285.56C290.455 1280.75 169.201 1270.59 43.738 1249.48C22.5167 1245.91 3.99313 1242.99 2.57679 1242.99C0.682383 1242.99 0 1247.53 0 1260.12Z" fill="#FFD88C"/>
</svg>
